<?xml version="1.0" encoding="UTF-8" standalone="no"?>
<svg
   class="logo-mclear"
   data-name="logo-mclear"
   id="logo-mclear"
   viewBox="0 0 255.3107 64.279204"
   version="1.1"
   sodipodi:docname="McLEAR_idP3SN9YYu_1.svg"
   width="255.3107"
   height="64.279205"
   inkscape:version="1.4.3 (0d15f75042, 2025-12-25)"
   xmlns:inkscape="http://www.inkscape.org/namespaces/inkscape"
   xmlns:sodipodi="http://sodipodi.sourceforge.net/DTD/sodipodi-0.dtd"
   xmlns="http://www.w3.org/2000/svg"
   xmlns:svg="http://www.w3.org/2000/svg">
  <defs
     id="defs12" />
  <sodipodi:namedview
     id="namedview12"
     pagecolor="#ffffff"
     bordercolor="#000000"
     borderopacity="0.25"
     inkscape:showpageshadow="2"
     inkscape:pageopacity="0.0"
     inkscape:pagecheckerboard="0"
     inkscape:deskcolor="#d1d1d1"
     inkscape:zoom="4.0726269"
     inkscape:cx="127.55895"
     inkscape:cy="30.56995"
     inkscape:window-width="3774"
     inkscape:window-height="1011"
     inkscape:window-x="66"
     inkscape:window-y="32"
     inkscape:window-maximized="1"
     inkscape:current-layer="logo-mclear" />
  <rect
     style="fill:#000000;fill-opacity:1;stroke:#808080;stroke-width:7.55906"
     id="rect12"
     width="247.75163"
     height="56.720146"
     x="3.77953"
     y="3.77953" />
  <path
     d="m 74.653119,36.943368 c -1.33,1.62 -3.47,2.47 -6.19,2.47 -4.7,0 -7.62,-2.62 -7.62,-6.83 0,-4.21 2.92,-6.83 7.62,-6.83 a 7.87,7.87 0 0 1 6,2.22 2.84,2.84 0 0 0 3.5,0.6 l 0.37,-0.21 -0.11,-0.26 c -1.66,-3.45 -5.2,-5.43 -9.71,-5.43 -6.4,0 -10.7,4 -10.7,9.91 0,5.91 4.3,9.91 10.7,9.91 4.68,0 8.39,-2.19 9.93,-5.86 l 0.11,-0.27 -0.33,-0.17 a 2.82,2.82 0 0 0 -3.57,0.75 z"
     id="path1"
     style="fill:#ffffff" />
  <path
     d="m 19.003119,20.413368 a 2.77,2.77 0 0 1 0.49,0.55 2.82,2.82 0 0 1 0.48,1.26 5.53,5.53 0 0 1 0,0.71 v 19 h 0.32 a 2.83,2.83 0 0 0 2.82,-2.82 v -12.91 l 8.33,14.28 a 2.82,2.82 0 0 0 2.43,1.4 h 0.18 a 2.84,2.84 0 0 0 2.44,-1.4 l 8.32,-14.27 v 12.85 a 2.83,2.83 0 0 0 2.82,2.83 h 0.32 v -21.47 h -1.9 a 2.85,2.85 0 0 0 -2.44,1.4 l -9.61,16.49 -9.61,-16.5 a 2.84,2.84 0 0 0 -2.44,-1.4 z"
     id="path2"
     style="fill:#ffffff" />
  <path
     d="m 91.623119,23.003368 a 2.55,2.55 0 0 0 -2.55,-2.55 h -0.6 v 18.62 a 2.82,2.82 0 0 0 2.82,2.82 h 14.200001 a 2.55,2.55 0 0 0 2.55,-2.55 v -0.34 H 91.623119 Z"
     id="path3"
     style="fill:#ffffff" />
  <path
     d="m 114.67312,23.243368 v 15.83 a 2.82,2.82 0 0 0 2.82,2.82 h 13.79 a 2.55,2.55 0 0 0 2.55,-2.55 v -0.34 h -16 v -6.34 h 13.46 a 2.56,2.56 0 0 0 2.55,-2.56 v -0.31 h -16 v -6.5 h 13.46 a 2.55,2.55 0 0 0 2.55,-2.55 v -0.32 h -16.36 a 2.82,2.82 0 0 0 -2.82,2.82 z"
     id="path4"
     style="fill:#ffffff" />
  <path
     d="m 153.34312,20.423368 v 0 a 2.83,2.83 0 0 0 -2.54,1.58 l -10.23,19.89 h 1.77 a 2.82,2.82 0 0 0 2.52,-1.55 l 1.94,-3.87 h 13 l 1.91,3.85 a 2.8,2.8 0 0 0 2.51,1.57 h 1.79 l -10.16,-19.89 a 2.82,2.82 0 0 0 -2.51,-1.58 z m -5.12,13.19 5.06,-10.19 5.07,10.19 z"
     id="path5"
     style="fill:#ffffff" />
  <path
     d="m 187.37312,32.563368 c 3,-0.31 6.27,-2 6.27,-6 0,-5.07 -4.62,-6.14 -8.5,-6.14 h -9.51 a 2.82,2.82 0 0 0 -2.81,2.82 v 18.65 h 0.32 a 2.81,2.81 0 0 0 2.81,-2.82 v -6.41 h 7.71 l 5.85,8.07 a 2.83,2.83 0 0 0 2.28,1.16 h 2.43 z m -11.41,-2.77 v -6.5 h 8.61 c 3.73,0 6,0.54 6,3.24 0,2.7 -2.31,3.26 -6,3.26 z"
     id="path6"
     style="fill:#ffffff" />
  <path
     d="m 211.16312,25.553368 c -1.27,0.59 -2,1.29 -2,2.59 v 5 c 0,1.29 0.76,2 2,2.59 l 0.75,0.32 v -10.82 c -0.3,0.11 -0.75,0.32 -0.75,0.32 z"
     id="path7"
     style="fill:#ffffff" />
  <path
     d="m 224.03312,29.113368 v -9.11 c -0.3,0.12 -0.75,0.33 -0.75,0.33 -1.27,0.58 -2,1.29 -2,2.59 v 6.2 z"
     id="path8"
     style="fill:#ffffff" />
  <path
     d="m 224.03312,32.173368 v 9.11 l -0.75,-0.32 c -1.27,-0.59 -2,-1.29 -2,-2.59 v -6.2 z"
     id="path9"
     style="fill:#ffffff" />
  <path
     d="m 217.22312,22.933368 c -1.27,0.59 -2,1.29 -2,2.59 v 10.23 c 0,1.3 0.76,2 2,2.59 0,0 0.45,0.21 0.75,0.33 v -16.06 z"
     id="path10"
     style="fill:#ffffff" />
  <path
     d="m 229.34312,17.703368 c -1.27,0.59 -2,1.29 -2,2.59 v 20.71 c 0,1.29 0.76,2 2,2.59 l 0.75,0.32 v -26.53 z"
     id="path11"
     style="fill:#ffffff" />
  <path
     d="m 236.15312,17.003368 a 6.58,6.58 0 0 1 0.4,-2.44 l -1.15,0.5 -0.1,0.05 c -1.21,0.58 -1.93,1.28 -1.93,2.54 v 25.95 c 0,1.27 0.72,2 1.93,2.54 h 0.1 c 0.43,0.21 0.86,0.38 1.15,0.5 a 6.48,6.48 0 0 1 -0.4,-2.43 z"
     id="path12"
     style="fill:#ffffff" />
</svg>
